<svg height="345.886" viewBox="0 0 518.84 345.89" width="518.842" xmlns="http://www.w3.org/2000/svg"><path d="m0 0h518.84v86.468h-518.84z" fill="#2b3187"/><path d="m0 86.468h518.84v172.95h-518.84z" fill="#cb2027"/><path d="m0 259.42h518.84v86.468h-518.84z" fill="#2b3187"/><g fill="#fff"><path d="m281.26 181.26h35.139v25.033h-35.139z"/><path d="m204.69 181.26h35.139v25.033h-35.139z"/><g stroke="#cb2128" stroke-width=".5713"><path d="m159.38 173.71h202v7.543h-202z"/><path d="m148.49 214.98h223.76v4.6h-223.76z"/><path d="m142.28 219.57h236.17v6.938h-236.17z"/><path d="m133.99 226.51h252.76v9.698h-252.76z"/><path d="m125.76 236.26h269.23v9.619h-269.23z"/><path d="m160.36 206.29-3.232 7.543h206.48l-3.206-7.543h-200.04z"/><path d="m281.26 174.18h35.086v7.07h-35.086z"/><path d="m204.69 174.26h35.139v7.07h-35.139z"/><path d="m157.13 166.64h206.48v7.549h-206.48z"/><path d="m237.85 166.08h45.403c2.247 0 4.061 1.807 4.061 4.047 0 2.248-1.813 4.061-4.061 4.061h-45.403c-2.247 0-4.054-1.813-4.054-4.061 0-2.24 1.807-4.047 4.054-4.047z"/><path d="m288.08 170.1.342-26.749s-1.039 6.564-4.14 6.564h-47.479c-3.101 0-4.139-6.564-4.139-6.564l.348 26.749z"/><path d="m277.56 157.96.105-8.739s5.927-1.603 5.111-3.896c-.828-2.287-7.95 2.891-7.95 2.891h-28.542s-7.129-5.178-7.95-2.891c-.828 2.293 5.105 3.896 5.105 3.896l.098 8.739z"/><path d="m280.98 165.51.104-9.258s7.123-1.078 6.138-3.371c-.986-2.293-9.554 2.891-9.554 2.891h-34.233s-8.568-5.185-9.547-2.891c-.992 2.293 6.124 3.371 6.124 3.371l.119 9.258z"/><path d="m265.55 118.32.039-3.686c-4.179 0-3.141-4.015-3.141-5.539 1.235-1.518 1.577-4.527-1.866-6.078-3.364 1.734-3.101 4.521-1.866 5.953.026 1.688 1.394 5.664-3.193 5.664l.026 3.686z"/><path d="m272.59 142.34.079-7.05s4.205-1.406 3.627-3.278c-.578-1.873-5.65 2.358-5.65 2.358h-20.198s-5.06-4.231-5.638-2.358c-.591 1.873 3.614 3.278 3.614 3.278l.079 7.05z"/><path d="m275.01 148.52.093-7.583s5.032-.88 4.35-2.76c-.71-1.873-6.781 2.372-6.781 2.372h-24.245s-6.064-4.245-6.761-2.372c-.703 1.879 4.33 2.76 4.33 2.76l.105 7.583z"/><path d="m268.35 131.11.039-4.625s2.721-1.117 2.353-2.392c-.381-1.274-3.64 1.604-3.64 1.604h-13.089s-3.272-2.878-3.653-1.604c-.368 1.275 2.353 2.392 2.353 2.392l.039 4.625z"/><path d="m269.91 135.3.053-4.619s3.259-1.124 2.812-2.398c-.447-1.275-4.376 1.616-4.376 1.616h-15.69s-3.929-2.891-4.376-1.616c-.46 1.274 2.812 2.398 2.812 2.398l.053 4.619z"/><path d="m266.07 122.96.026-4.219s1.932-.999 1.655-2.043c-.263-1.039-2.575 1.314-2.575 1.314h-9.265s-2.312-2.353-2.588-1.314c-.263 1.044 1.669 2.043 1.669 2.043l.039 3.699z"/><path d="m267.18 125.86.053-3.686s2.3-1.012 1.972-2.043c-.315-1.051-3.102 1.308-3.102 1.308h-11.104s-2.786-2.359-3.102-1.308c-.329 1.032 1.984 2.043 1.984 2.043l.053 3.686z"/><path d="m257.03 126.06-2.05-2.319c.683-.598 1.945.434 1.945.434s.683-2.661 3.626-3.778c2.931 1.117 3.627 3.778 3.627 3.778s1.262-1.032 1.945-.434l-2.05 2.319z"/><path d="m255.61 129.83-2.865-2.319c.946-.598 2.733.427 2.733.427s.959-2.667 5.072-3.771c4.101 1.104 5.073 3.771 5.073 3.771s1.761-1.025 2.733-.427l-2.892 2.319z"/><path d="m254.92 136.44-3.298-3.088c1.104-.795 3.141.571 3.141.571s1.091-3.555 5.795-5.04c4.679 1.485 5.782 5.04 5.782 5.04s2.037-1.367 3.128-.571l-3.285 3.088z"/><path d="m253.51 144.55-4.113-3.857c1.367-1.019 3.916.703 3.916.703s1.38-4.429 7.24-6.288c5.861 1.859 7.241 6.288 7.241 6.288s2.536-1.722 3.902-.703l-4.1 3.857z"/><path d="m252.09 152.31-4.928-4.297c1.643-1.124 4.705.782 4.705.782s1.643-4.941 8.686-7.011c7.044 2.07 8.687 7.011 8.687 7.011s3.049-1.906 4.691-.782l-4.941 4.297z"/><path d="m251.4 163.32-5.348-5.408c1.787-1.406 5.099 1.005 5.099 1.005s1.761-6.216 9.409-8.818c7.622 2.602 9.409 8.818 9.409 8.818s3.299-2.412 5.086-1.005l-5.349 5.408z"/><path d="m251.4 174.18-5.348-5.401c1.787-1.406 5.099 1.012 5.099 1.012s1.761-6.223 9.409-8.824c7.622 2.602 9.409 8.824 9.409 8.824s3.299-2.418 5.086-1.012l-5.349 5.401z"/><path d="m256.48 111.65h8.147v3.102h-8.147z"/><path d="m257.54 108.62h6.019v2.957h-6.019z"/><path d="m239.83 206.29-4.146 6.295h49.68l-4.152-6.295z"/><path d="m250.16 206.29-2.063 6.295h24.863l-2.076-6.295z"/><path d="m254.09 206.29-1.288 6.295h15.454l-1.288-6.295z"/><path d="m316.35 206.35-4.152 6.229h49.674l-4.14-6.229z"/><path d="m326.68 206.35-2.076 6.229h24.863l-2.076-6.229z"/><path d="m331.46 214.98h11.144v30.908h-11.144z"/><path d="m333.32 214.98h7.438v30.908h-7.438z" fill="none"/><path d="m330.6 206.35-1.287 6.229h15.453l-1.287-6.229z"/><path d="m204.63 206.35 4.172 6.229h-49.989l4.166-6.229z"/><path d="m194.23 206.35 2.083 6.229h-25.021l2.089-6.229z"/><path d="m178.19 214.98h11.223v30.908h-11.223z"/><path d="m180.06 214.98h7.484v30.908h-7.484z" fill="none"/><path d="m190.29 206.35 1.294 6.229h-15.559l1.294-6.229z"/><path d="m320.12 168.13h33.707c1.656 0 3.01 1.347 3.01 3.003 0 1.668-1.354 3.022-3.01 3.022h-33.707c-1.668 0-3.009-1.354-3.009-3.022 0-1.656 1.341-3.003 3.009-3.003z"/><path d="m357.42 171.14.25-19.87s-.763 4.875-3.075 4.875h-35.244c-2.287 0-3.075-4.875-3.075-4.875l.263 19.87z"/><path d="m349.6 162.12.079-6.485s4.402-1.196 3.785-2.891c-.605-1.708-5.9 2.135-5.9 2.135h-21.171s-5.309-3.844-5.913-2.135c-.604 1.695 3.798 2.891 3.798 2.891l.065 6.485z"/><path d="m352.12 167.72.092-6.879s5.296-.808 4.561-2.503c-.736-1.689-7.097 2.155-7.097 2.155h-25.415s-6.347-3.844-7.083-2.155c-.723 1.695 4.547 2.503 4.547 2.503l.092 6.879z"/><path d="m340.69 132.69.026-2.733c-3.102 0-2.339-2.983-2.339-4.107.919-1.143 1.183-3.357-1.38-4.514-2.497 1.288-2.3 3.344-1.38 4.416.013 1.261 1.024 4.205-2.379 4.205l.013 2.733z"/><path d="m345.92 150.51.052-5.237s3.128-1.038 2.681-2.431c-.42-1.393-4.179 1.761-4.179 1.761h-14.994s-3.745-3.154-4.191-1.761c-.421 1.393 2.681 2.431 2.681 2.431l.065 5.237z"/><path d="m347.71 155.11.065-5.624s3.745-.664 3.22-2.057c-.513-1.38-5.021 1.754-5.021 1.754h-18.003s-4.494-3.134-5.02-1.754c-.526 1.393 3.232 2.057 3.232 2.057l.053 5.624z"/><path d="m342.76 142.18.026-3.437s2.023-.834 1.748-1.774c-.276-.953-2.721 1.196-2.721 1.196h-9.698s-2.431-2.148-2.707-1.196c-.289.939 1.734 1.774 1.734 1.774l.04 3.437z"/><path d="m343.92 145.29.039-3.423s2.432-.834 2.09-1.781c-.342-.939-3.259 1.196-3.259 1.196h-11.644s-2.917-2.136-3.245-1.196c-.329.946 2.089 1.781 2.089 1.781l.04 3.423z"/><path d="m341.07 136.12.026-3.121s1.433-.749 1.235-1.524c-.197-.769-1.932.972-1.932.972h-6.859s-1.735-1.741-1.919-.972c-.21.775 1.235 1.524 1.235 1.524l.026 2.747z"/><path d="m341.9 138.28.026-2.733s1.708-.756 1.472-1.524c-.236-.769-2.3.979-2.3.979h-8.239s-2.076-1.748-2.313-.979c-.236.769 1.473 1.524 1.473 1.524l.039 2.733z"/><path d="m334.36 138.43-1.524-1.721c.513-.44 1.459.329 1.459.329s.512-1.978 2.681-2.812c2.181.834 2.693 2.812 2.693 2.812s.946-.769 1.445-.329l-1.523 1.721z"/><path d="m333.3 141.23-2.129-1.722c.71-.44 2.037.329 2.037.329s.696-1.978 3.759-2.799c3.049.821 3.771 2.799 3.771 2.799s1.313-.769 2.023-.329l-2.129 1.722z"/><path d="m332.79 146.14-2.431-2.293c.802-.598 2.312.42 2.312.42s.815-2.628 4.298-3.739c3.482 1.11 4.297 3.739 4.297 3.739s1.524-1.019 2.326-.42l-2.432 2.293z"/><path d="m331.74 152.15-3.035-2.865c1.012-.743 2.903.532 2.903.532s1.013-3.292 5.362-4.672c4.362 1.38 5.374 4.672 5.374 4.672s1.893-1.275 2.918-.532l-3.049 2.865z"/><path d="m330.7 157.92-3.653-3.2c1.209-.821 3.47.598 3.47.598s1.222-3.673 6.452-5.21c5.243 1.538 6.452 5.21 6.452 5.21s2.26-1.419 3.482-.598l-3.653 3.2z"/><path d="m330.18 166.09-3.969-4.015c1.327-1.038 3.784.729 3.784.729s1.314-4.593 6.979-6.538c5.663 1.945 6.99 6.538 6.99 6.538s2.458-1.768 3.771-.729l-3.968 4.015z"/><path d="m330.18 174.16-3.969-4.008c1.327-1.038 3.784.723 3.784.723s1.314-4.586 6.979-6.531c5.663 1.945 6.99 6.531 6.99 6.531s2.458-1.761 3.771-.723l-3.968 4.008z"/><path d="m333.93 127.75h6.071v2.293h-6.071z"/><path d="m334.75 125.48h4.454v2.201h-4.454z"/><path d="m166.88 168.22h33.982c1.676 0 3.036 1.34 3.036 3.022 0 1.669-1.36 3.022-3.036 3.022h-33.982c-1.682 0-3.042-1.354-3.042-3.022 0-1.682 1.36-3.022 3.042-3.022z"/><path d="m204.48 171.22.256-19.896s-.775 4.882-3.095 4.882h-35.54c-2.319 0-3.088-4.882-3.088-4.882l.25 19.896z"/><path d="m196.6 162.19.072-6.498s4.448-1.196 3.837-2.904c-.625-1.708-5.966 2.149-5.966 2.149h-21.354s-5.335-3.857-5.953-2.149 3.824 2.904 3.824 2.904l.079 6.498z"/><path d="m199.16 167.8.085-6.873s5.322-.821 4.593-2.53c-.749-1.688-7.155 2.162-7.155 2.162h-25.619s-6.406-3.85-7.149-2.162c-.736 1.708 4.586 2.53 4.586 2.53l.085 6.873z"/><path d="m187.62 132.71.02-2.746c-3.127 0-2.352-2.983-2.352-4.12.926-1.13 1.183-3.357-1.393-4.514-2.517 1.288-2.319 3.357-1.386 4.428.006 1.249 1.025 4.206-2.398 4.206l.013 2.746z"/><path d="m192.9 150.56.046-5.237s3.147-1.038 2.713-2.431c-.434-1.406-4.218 1.754-4.218 1.754h-15.132s-3.778-3.161-4.218-1.754c-.434 1.393 2.714 2.431 2.714 2.431l.052 5.237z"/><path d="m194.7 155.18.065-5.638s3.778-.664 3.246-2.057c-.526-1.386-5.06 1.754-5.06 1.754h-18.147s-4.541-3.141-5.066-1.754c-.526 1.393 3.252 2.057 3.252 2.057l.059 5.638z"/><path d="m189.71 142.22.033-3.437s2.031-.834 1.754-1.787c-.282-.939-2.733 1.196-2.733 1.196h-9.784s-2.451-2.135-2.727-1.196c-.289.953 1.741 1.787 1.741 1.787l.04 3.437z"/><path d="m190.87 145.34.046-3.437s2.444-.834 2.103-1.781c-.335-.939-3.272 1.196-3.272 1.196h-11.755s-2.93-2.135-3.272-1.196c-.342.946 2.109 1.781 2.109 1.781l.039 3.437z"/><path d="m188 136.15.026-3.121s1.446-.762 1.249-1.524c-.204-.782-1.938.973-1.938.973h-6.932s-1.735-1.754-1.938-.973c-.197.762 1.249 1.524 1.249 1.524l.026 2.747z"/><path d="m188.84 138.32.033-2.747s1.728-.755 1.485-1.524c-.243-.782-2.326.979-2.326.979h-8.318s-2.069-1.761-2.319-.979c-.236.769 1.498 1.524 1.498 1.524l.026 2.747z"/><path d="m181.24 138.45-1.538-1.721c.506-.44 1.458.329 1.458.329s.513-1.978 2.714-2.812c2.188.834 2.707 2.812 2.707 2.812s.953-.769 1.458-.329l-1.531 1.721z"/><path d="m180.18 141.27-2.155-1.722c.723-.44 2.05.315 2.05.315s.716-1.965 3.798-2.799c3.075.834 3.791 2.799 3.791 2.799s1.334-.756 2.05-.315l-2.155 1.722z"/><path d="m179.66 146.18-2.464-2.293c.821-.598 2.346.421 2.346.421s.821-2.628 4.336-3.739c3.509 1.11 4.33 3.739 4.33 3.739s1.524-1.019 2.346-.421l-2.464 2.293z"/><path d="m178.6 152.22-3.068-2.878c1.019-.743 2.931.532 2.931.532s1.019-3.292 5.414-4.672c4.389 1.38 5.414 4.672 5.414 4.672s1.905-1.275 2.931-.532l-3.069 2.878z"/><path d="m177.55 157.99-3.692-3.206c1.229-.834 3.515.598 3.515.598s1.229-3.679 6.505-5.217c5.276 1.538 6.498 5.217 6.498 5.217s2.287-1.432 3.516-.598l-3.693 3.206z"/><path d="m177.02 166.17-3.995-4.015c1.334-1.038 3.811.742 3.811.742s1.333-4.612 7.043-6.551c5.71 1.938 7.043 6.551 7.043 6.551s2.477-1.78 3.804-.742l-3.988 4.015z"/><path d="m177.02 174.26-3.995-4.021c1.334-1.051 3.811.736 3.811.736s1.333-4.619 7.043-6.558c5.71 1.938 7.043 6.558 7.043 6.558s2.477-1.787 3.804-.736l-3.988 4.021z"/><path d="m180.81 127.75h6.117v2.306h-6.117z"/><path d="m181.62 125.5h4.508v2.201h-4.508z"/><path d="m239.83 174.18h41.434v32.104h-41.434z"/><path d="m250.2 174.18h20.71v32.091h-20.71z"/><path d="m316.35 174.26h41.435v32.024h-41.435z"/><path d="m326.71 174.26h20.711v32.012h-20.711z"/><path d="m162.98 174.26h41.71v32.091h-41.71z"/><path d="m173.42 174.26h20.842v32.077h-20.842z"/><path d="m350.69 188.51h3.93v13.562h-3.93z"/><path d="m317.88 192.95h7.307v9.12h-7.307z"/><path d="m274.17 192.95h3.942v9.12h-3.942z"/><path d="m330.62 185.22h12.879v21.064h-12.879z"/><path d="m166.3 188.51h3.962v13.562h-3.962z"/><path d="m177.35 185.25h12.832v21.091h-12.832z"/><path d="m243.1 192.95h3.936v9.12h-3.936z"/><path d="m254.12 179.76h12.878v26.531h-12.878z"/><path d="m285.09 192.95h3.929v9.12h-3.929z"/><path d="m296.85 192.95h3.916v9.12h-3.916z"/><path d="m290.96 192.95h3.929v9.12h-3.929z"/><path d="m308.6 192.95h3.942v9.12h-3.942z"/><path d="m302.72 192.95h3.93v9.12h-3.93z"/><path d="m208.32 192.95h3.936v9.133h-3.936z"/><path d="m220.08 192.95h3.922v9.12h-3.922z"/><path d="m214.2 192.95h3.936v9.12h-3.936z"/><path d="m231.84 192.95h3.929v9.12h-3.929z"/><path d="m225.95 192.95h3.929v9.12h-3.929z"/><path d="m257.01 214.98h7.044v30.96h-7.044z"/><path d="m151.81 212.58h217.14v2.392h-217.14z"/><path d="m195.82 192.95h7.313v9.133h-7.313z"/></g></g></svg>