<svg enable-background="new 0 0 1280 1280" viewBox="0 0 1280 1280" xmlns="http://www.w3.org/2000/svg" xmlns:xlink="http://www.w3.org/1999/xlink"><clipPath id="a"><path d="m733.2 814.4c-42.1 0-66.4-6.7-72.3-20-8.5-19.2-2.9-29.8 1.2-34.4 5.4-6.1 14.4-8.7 21.9-6.4 3.6 1.1 13.5 2.8 26 4.9 7.6 1.3 16.3 2.8 25.2 4.4 45.2 8.3 66.9 15.2 70.3 22.6 7.4 15.8-10.2 24.8-10.3 24.9l-.2.1h-.2c-19.7 2.4-39.8 3.7-59.6 3.9-.7 0-1.4 0-2 0zm-54.9-59.6c-5.4 0-11 2.4-14.7 6.5-3.8 4.2-8.9 14.1-.8 32.3 5.4 12.3 29.8 18.8 70.5 18.8h1.8c19.7-.2 39.6-1.5 59.2-3.8 1.7-.9 15.5-8.7 9.3-22.2-4.5-9.7-52.9-18.5-68.8-21.4-8.9-1.6-17.5-3.1-25.2-4.4-12.6-2.2-22.5-3.8-26.2-5-1.6-.6-3.4-.8-5.1-.8z"/></clipPath><clipPath id="b"><path d="m735.1 813.4c-32 .2-66.3-3.6-73.2-19.4-13.7-31 8.1-43.7 21.8-39.4 5.9 1.8 27.7 5.1 51.3 9.4 5.9 11.6 16.9 38.1.1 49.4z"/></clipPath><clipPath id="c"><path d="m553 814.4c-.6 0-1.3 0-1.9 0-19.9-.2-39.9-1.5-59.6-3.9h-.2l-.2-.1c-.2-.1-17.7-9.1-10.3-24.9 3.4-7.3 25.1-14.3 70.3-22.6 8.9-1.6 17.5-3.1 25.2-4.4 12.5-2.1 22.4-3.8 26-4.9 7.5-2.3 16.5.3 21.9 6.4 4.1 4.6 9.7 15.2 1.2 34.4-6 13.3-30.3 20-72.4 20zm-61.1-5.9c19.6 2.4 39.5 3.7 59.2 3.8 41.8.2 66.8-6.3 72.3-18.8 8.1-18.2 2.9-28.1-.8-32.3-4.9-5.5-13-7.9-19.8-5.8-3.7 1.1-13.7 2.8-26.2 5-7.6 1.3-16.3 2.8-25.2 4.4-15.9 2.9-64.3 11.8-68.8 21.4-6.2 13.6 7.6 21.4 9.3 22.3z"/></clipPath><clipPath id="d"><path d="m551.1 813.4c32 .2 66.3-3.6 73.2-19.4 13.7-31-8.1-43.7-21.8-39.4-5.9 1.8-27.7 5.1-51.3 9.4-5.9 11.6-16.9 38.1-.1 49.4z"/></clipPath><path d="m674 431.3s-52.1-283.3 38.1-237.6-7.9 238.3-7.9 238.3l-10.2 15.3z" fill="#00b4d5"/><path d="m695.2 454.6-25.8-20.6-.3-1.8c-.1-.5-9.5-52.2-13.4-107.2-5.3-75.3 2.1-121 21.9-135.8 9.8-7.4 22.2-7.3 36.8 0 17.2 8.7 29.1 23 35.5 42.4 10.1 31 6.2 74.6-11.6 129.6-13.1 40.6-29.4 72.7-29.6 73l-.3.5zm-16.6-26 14.3 11.4 7-10.5c3.1-6.3 62.6-126.7 40.4-194.7-5.5-16.8-15.7-29.1-30.5-36.6-11.1-5.6-19.7-5.9-26.3-1-33.8 25.3-15.3 173.8-4.9 231.4z" fill="#fff"/><path d="m691.8 432.5s39.5-175.5 15.8-187.5-23.9 194-23.9 194z" fill="#fff"/><path d="m605 431.3s52.1-283.3-38.1-237.6 7.9 238.3 7.9 238.3l10.2 15.3z" fill="#00b4d5"/><path d="m583.8 454.6-13.5-20.4c-.2-.3-16.4-32.4-29.6-73-17.8-55-21.7-98.6-11.6-129.6 6.3-19.5 18.3-33.7 35.5-42.4 14.6-7.4 27-7.4 36.8 0 19.8 14.8 27.2 60.5 21.9 135.8-3.9 55-13.3 106.7-13.4 107.2l-.3 1.8zm-4.7-25.1 7 10.5 14.3-11.4c10.4-57.6 28.9-206-5-231.4-6.6-5-15.2-4.6-26.3 1-14.7 7.5-25 19.8-30.5 36.6-22.1 67.9 37.4 188.4 40.5 194.7z" fill="#fff"/><path d="m587.2 432.5s-39.5-175.5-15.8-187.5 23.9 194 23.9 194z" fill="#fff"/><path d="m640 775c-79.3 0-139.5-7.9-179-23.4-34.9-13.7-54.7-33.6-59.1-59.2-7.8-46.1 39.3-93.8 50.8-104.7 14.8-73.8 44.2-123.8 87.4-148.8 44.1-25.5 88-15.9 99.9-12.6 12-3.4 55.8-12.9 100 12.6 43.2 24.9 72.6 75 87.3 148.7 10.7 10.1 52.2 52.1 51.6 95-.4 28.2-18 50.4-52.4 65.8-39.3 17.6-102.1 26.6-186.5 26.6zm-169.1-181.5v3.3l-3.2 2.8c-.5.5-54 48.6-47.1 89.6 3.1 18.6 19 33.6 47.3 44.7 37.3 14.6 95.2 22.1 172.1 22.1 81.7 0 141.9-8.4 178.8-24.9 27.4-12.3 40.9-28.2 41.2-48.7.5-39.5-47.2-82.3-47.7-82.8l-2.4-2.1-.6-3.2c-13.4-69.7-39.8-116.4-78.5-138.8-43-25-87.2-10.4-87.6-10.3l-3.1 1-3.1-1.1c-.4-.1-44.6-14.7-87.6 10.3-38.6 22.5-65 68.9-78.5 138.1z" fill="#fff"/><path d="m869.4 682.5c-.5 42-47.7 82.9-229.4 82.9-169.8 0-222.1-35.7-228.7-74.7-7.9-46.8 50.1-98.2 50.1-98.2s0-.2 0-.2c39.6-204.1 178.6-156 178.6-156h.1c4.2-1.4 139.7-44.9 178.5 156.3 0 0 37.6 33.3 48.1 70.7 1.8 6.2 2.7 12.7 2.7 19.2z" fill="#fff"/><path d="m674.5 687.2c-.9 2-1.7 3.9-2.6 5.7-32.3 68.1-63.6 2.2-66.8-5.1l-.3-.6 20.8-5.1 14.3 8.2 14.3-8.2z" fill="#00b4d5"/><path d="m640.5 871.2v39.1s10.6-1.5 10.8-29.1c0 0 13.5 12.4 13.7 17.7 0 0 4.4-21.2-8.8-31.8s-15.7 4.1-15.7 4.1z" fill="#04990e"/><path d="m640.5 871.2v39.1s-10.6-1.5-10.8-29.1c0 0-13.5 12.4-13.7 17.7 0 0-4.4-21.2 8.8-31.8s15.7 4.1 15.7 4.1z" fill="#04990e"/><path d="m671.2 829.3c-.2 14.5-1.7 25.6-5.2 29.6-15.1 17-25.9 14.5-25.9 14.5s-10.8 2.4-25.9-14.5c-3.5-4-5-15-5.2-29.6-.7-47.4 12.3-132.3 12.3-132.3l.3-.5 9.2-12.6 9.4 7.7 9.4-7.7 9.1 12.6.3.5s12.9 84.9 12.2 132.3z" fill="#e9692d"/><path d="m649.5 713.2h-8.1c-.5 0-.9-.4-.9-.9v-23h10.7z" fill="#fff"/><path d="m630.5 713.2h8.1c.5 0 .9-.4.9-.9v-23h-10.7z" fill="#fff"/><path d="m680 667.8c-1.5 12.5-4.4 20.6-8 25.6-.8 1-1.6 2-2.6 2.9-10.6 9.8-25.2-.6-29.4-3.9-4.1 3.3-18.8 13.7-29.4 3.9-2.3-2.3-4.2-5-5.5-8l-.3-.6c-2.1-4.8-3.8-11.3-4.8-19.8l25.1 14.4.5.3 14.3 8.2 14.3-8.2.6-.3z" fill="#00b4d5"/><path d="m680 666.2c-1.5 12.5-4.4 20.6-8 25.6-.8 1-1.6 2-2.6 2.9-10.6 9.8-25.2-.6-29.4-3.9-4.1 3.3-18.8 13.7-29.4 3.9-2.3-2.3-4.2-5-5.5-8-.1-.3-.2-.5-.3-.6-2.1-4.8-3.8-11.3-4.8-19.8l25.1 14.4.5.3 14.3 8.2 14.3-8.2.6-.3z" fill="#fff"/><circle cx="640.1" cy="674.2" fill="#00b4d5" r="14.5"/><path d="m794.6 809.5c-19.8 2.4-39.6 3.7-59.5 3.9-32 .2-66.3-3.6-73.2-19.4-13.7-31 8.1-43.7 21.8-39.4 5.9 1.8 27.7 5.1 51.3 9.4 31.2 5.7 65.5 13.3 69.5 22 7 15-9.9 23.5-9.9 23.5z" fill="#00b4d5"/><path clip-path="url(#a)" d="m654.7 754.8h1.8v57.6h-1.8z" fill="#dadada"/><path clip-path="url(#a)" d="m656.5 754.8h1.2v57.6h-1.2z" fill="#dadada"/><path clip-path="url(#a)" d="m657.7 754.8h1.2v57.6h-1.2z" fill="#dbdbdb"/><path clip-path="url(#a)" d="m658.9 754.8h1.2v57.6h-1.2z" fill="#dcdcdc"/><path clip-path="url(#a)" d="m660.1 754.8h1.2v57.6h-1.2z" fill="#ddd"/><path clip-path="url(#a)" d="m661.3 754.8h1.2v57.6h-1.2z" fill="#dedede"/><path clip-path="url(#a)" d="m662.5 754.8h1.2v57.6h-1.2z" fill="#dfdfdf"/><path clip-path="url(#a)" d="m663.7 754.8h1.2v57.6h-1.2z" fill="#e0e0e0"/><path clip-path="url(#a)" d="m664.9 754.8h1.2v57.6h-1.2z" fill="#e2e2e2"/><path clip-path="url(#a)" d="m666.1 754.8h1.2v57.6h-1.2z" fill="#e3e3e3"/><path clip-path="url(#a)" d="m667.3 754.8h1.2v57.6h-1.2z" fill="#e4e4e4"/><path clip-path="url(#a)" d="m668.5 754.8h1.2v57.6h-1.2z" fill="#e5e5e5"/><path clip-path="url(#a)" d="m669.8 754.8h1.2v57.6h-1.2z" fill="#e6e6e6"/><path clip-path="url(#a)" d="m671 754.8h1.2v57.6h-1.2z" fill="#e7e7e7"/><path clip-path="url(#a)" d="m672.2 754.8h1.2v57.6h-1.2z" fill="#e8e8e8"/><path clip-path="url(#a)" d="m673.4 754.8h1.2v57.6h-1.2z" fill="#e9e9e9"/><path clip-path="url(#a)" d="m674.6 754.8h2v57.6h-2z" fill="#e9e9e9"/><path clip-path="url(#a)" d="m676.5 754.8h2v57.6h-2z" fill="#eaeaea"/><path clip-path="url(#a)" d="m678.5 754.8h2v57.6h-2z" fill="#ebebeb"/><path clip-path="url(#a)" d="m680.5 754.8h2v57.6h-2z" fill="#ececec"/><path clip-path="url(#a)" d="m682.5 754.8h2v57.6h-2z" fill="#ededed"/><path clip-path="url(#a)" d="m684.4 754.8h2v57.6h-2z" fill="#eee"/><path clip-path="url(#a)" d="m686.4 754.8h2v57.6h-2z" fill="#f0f0f0"/><path clip-path="url(#a)" d="m688.4 754.8h2v57.6h-2z" fill="#f1f1f1"/><path clip-path="url(#a)" d="m690.3 754.8h2v57.6h-2z" fill="#f2f2f2"/><path clip-path="url(#a)" d="m692.3 754.8h2v57.6h-2z" fill="#f3f3f3"/><path clip-path="url(#a)" d="m694.3 754.8h2v57.6h-2z" fill="#f4f4f4"/><path clip-path="url(#a)" d="m696.3 754.8h2v57.6h-2z" fill="#f5f5f5"/><path clip-path="url(#a)" d="m698.2 754.8h2v57.6h-2z" fill="#f6f6f6"/><path clip-path="url(#a)" d="m700.2 754.8h4.7v57.6h-4.7z" fill="#f6f6f6"/><path clip-path="url(#a)" d="m704.9 754.8h4.7v57.6h-4.7z" fill="#f7f7f7"/><path clip-path="url(#a)" d="m709.7 754.8h4.7v57.6h-4.7z" fill="#f8f8f8"/><path clip-path="url(#a)" d="m714.4 754.8h4.7v57.6h-4.7z" fill="#fafafa"/><path clip-path="url(#a)" d="m719.1 754.8h4.7v57.6h-4.7z" fill="#fbfbfb"/><path clip-path="url(#a)" d="m723.9 754.8h4.7v57.6h-4.7z" fill="#fcfcfc"/><path clip-path="url(#a)" d="m728.6 754.8h4.7v57.6h-4.7z" fill="#fdfdfd"/><path clip-path="url(#a)" d="m733.4 754.8h36.9v57.6h-36.9z" fill="#fdfdfd"/><path clip-path="url(#a)" d="m770.3 754.8h36.9v57.6h-36.9z" fill="#fff"/><path clip-path="url(#a)" d="m807.2 754.8h2.6v57.6h-2.6z" fill="#fff"/><path clip-path="url(#a)" d="m652.4 751.3h4.1v63.1h-4.1z" fill="#dadada"/><path clip-path="url(#a)" d="m656.5 751.3h1.2v63.1h-1.2z" fill="#dadada"/><path clip-path="url(#a)" d="m657.7 751.3h1.2v63.1h-1.2z" fill="#dbdbdb"/><path clip-path="url(#a)" d="m658.9 751.3h1.2v63.1h-1.2z" fill="#dcdcdc"/><path clip-path="url(#a)" d="m660.1 751.3h1.2v63.1h-1.2z" fill="#ddd"/><path clip-path="url(#a)" d="m661.3 751.3h1.2v63.1h-1.2z" fill="#dedede"/><path clip-path="url(#a)" d="m662.5 751.3h1.2v63.1h-1.2z" fill="#dfdfdf"/><path clip-path="url(#a)" d="m663.7 751.3h1.2v63.1h-1.2z" fill="#e0e0e0"/><path clip-path="url(#a)" d="m664.9 751.3h1.2v63.1h-1.2z" fill="#e2e2e2"/><path clip-path="url(#a)" d="m666.1 751.3h1.2v63.1h-1.2z" fill="#e3e3e3"/><path clip-path="url(#a)" d="m667.3 751.3h1.2v63.1h-1.2z" fill="#e4e4e4"/><path clip-path="url(#a)" d="m668.5 751.3h1.2v63.1h-1.2z" fill="#e5e5e5"/><path clip-path="url(#a)" d="m669.8 751.3h1.2v63.1h-1.2z" fill="#e6e6e6"/><path clip-path="url(#a)" d="m671 751.3h1.2v63.1h-1.2z" fill="#e7e7e7"/><path clip-path="url(#a)" d="m672.2 751.3h1.2v63.1h-1.2z" fill="#e8e8e8"/><path clip-path="url(#a)" d="m673.4 751.3h1.2v63.1h-1.2z" fill="#e9e9e9"/><path clip-path="url(#a)" d="m674.6 751.3h2v63.1h-2z" fill="#e9e9e9"/><path clip-path="url(#a)" d="m676.5 751.3h2v63.1h-2z" fill="#eaeaea"/><path clip-path="url(#a)" d="m678.5 751.3h2v63.1h-2z" fill="#ebebeb"/><path clip-path="url(#a)" d="m680.5 751.3h2v63.1h-2z" fill="#ececec"/><path clip-path="url(#a)" d="m682.5 751.3h2v63.1h-2z" fill="#ededed"/><path clip-path="url(#a)" d="m684.4 751.3h2v63.1h-2z" fill="#eee"/><path clip-path="url(#a)" d="m686.4 751.3h2v63.1h-2z" fill="#f0f0f0"/><path clip-path="url(#a)" d="m688.4 751.3h2v63.1h-2z" fill="#f1f1f1"/><path clip-path="url(#a)" d="m690.3 751.3h2v63.1h-2z" fill="#f2f2f2"/><path clip-path="url(#a)" d="m692.3 751.3h2v63.1h-2z" fill="#f3f3f3"/><path clip-path="url(#a)" d="m694.3 751.3h2v63.1h-2z" fill="#f4f4f4"/><path clip-path="url(#a)" d="m696.3 751.3h2v63.1h-2z" fill="#f5f5f5"/><path clip-path="url(#a)" d="m698.2 751.3h2v63.1h-2z" fill="#f6f6f6"/><path clip-path="url(#a)" d="m700.2 751.3h4.7v63.1h-4.7z" fill="#f6f6f6"/><path clip-path="url(#a)" d="m704.9 751.3h4.7v63.1h-4.7z" fill="#f7f7f7"/><path clip-path="url(#a)" d="m709.7 751.3h4.7v63.1h-4.7z" fill="#f8f8f8"/><path clip-path="url(#a)" d="m714.4 751.3h4.7v63.1h-4.7z" fill="#fafafa"/><path clip-path="url(#a)" d="m719.1 751.3h4.7v63.1h-4.7z" fill="#fbfbfb"/><path clip-path="url(#a)" d="m723.9 751.3h4.7v63.1h-4.7z" fill="#fcfcfc"/><path clip-path="url(#a)" d="m728.6 751.3h4.7v63.1h-4.7z" fill="#fdfdfd"/><path clip-path="url(#a)" d="m733.4 751.3h36.9v63.1h-36.9z" fill="#fdfdfd"/><path clip-path="url(#a)" d="m770.3 751.3h36.9v63.1h-36.9z" fill="#fff"/><path clip-path="url(#a)" d="m807.2 751.3h5.6v63.1h-5.6z" fill="#fff"/><g clip-path="url(#b)"><path d="m648.1 750.3h9.3v63.2h-9.3z" fill="#dadada"/></g><g clip-path="url(#b)"><path d="m657.5 750.3h.7v63.2h-.7z" fill="#dadada"/></g><g clip-path="url(#b)"><path d="m658.2 750.3h.7v63.2h-.7z" fill="#dbdbdb"/></g><g clip-path="url(#b)"><path d="m658.9 750.3h.7v63.2h-.7z" fill="#dcdcdc"/></g><g clip-path="url(#b)"><path d="m659.6 750.3h.7v63.2h-.7z" fill="#ddd"/></g><g clip-path="url(#b)"><path d="m660.3 750.3h.7v63.2h-.7z" fill="#dedede"/></g><g clip-path="url(#b)"><path d="m661 750.3h.7v63.2h-.7z" fill="#dfdfdf"/></g><g clip-path="url(#b)"><path d="m661.7 750.3h.7v63.2h-.7z" fill="#e0e0e0"/></g><g clip-path="url(#b)"><path d="m662.3 750.3h.7v63.2h-.7z" fill="#e2e2e2"/></g><g clip-path="url(#b)"><path d="m663 750.3h.7v63.2h-.7z" fill="#e3e3e3"/></g><g clip-path="url(#b)"><path d="m663.7 750.3h.7v63.2h-.7z" fill="#e4e4e4"/></g><g clip-path="url(#b)"><path d="m664.4 750.3h.7v63.2h-.7z" fill="#e5e5e5"/></g><g clip-path="url(#b)"><path d="m665.1 750.3h.7v63.2h-.7z" fill="#e6e6e6"/></g><g clip-path="url(#b)"><path d="m665.8 750.3h.7v63.2h-.7z" fill="#e7e7e7"/></g><g clip-path="url(#b)"><path d="m666.5 750.3h.7v63.2h-.7z" fill="#e8e8e8"/></g><g clip-path="url(#b)"><path d="m667.2 750.3h.7v63.2h-.7z" fill="#e9e9e9"/></g><g clip-path="url(#b)"><path d="m667.9 750.3h1.1v63.2h-1.1z" fill="#e9e9e9"/></g><g clip-path="url(#b)"><path d="m669 750.3h1.1v63.2h-1.1z" fill="#eaeaea"/></g><g clip-path="url(#b)"><path d="m670.1 750.3h1.1v63.2h-1.1z" fill="#ebebeb"/></g><g clip-path="url(#b)"><path d="m671.3 750.3h1.1v63.2h-1.1z" fill="#ececec"/></g><g clip-path="url(#b)"><path d="m672.4 750.3h1.1v63.2h-1.1z" fill="#ededed"/></g><g clip-path="url(#b)"><path d="m673.5 750.3h1.1v63.2h-1.1z" fill="#eee"/></g><g clip-path="url(#b)"><path d="m674.7 750.3h1.1v63.2h-1.1z" fill="#f0f0f0"/></g><g clip-path="url(#b)"><path d="m675.8 750.3h1.1v63.2h-1.1z" fill="#f1f1f1"/></g><g clip-path="url(#b)"><path d="m676.9 750.3h1.1v63.2h-1.1z" fill="#f2f2f2"/></g><g clip-path="url(#b)"><path d="m678.1 750.3h1.1v63.2h-1.1z" fill="#f3f3f3"/></g><g clip-path="url(#b)"><path d="m679.2 750.3h1.1v63.2h-1.1z" fill="#f4f4f4"/></g><g clip-path="url(#b)"><path d="m680.3 750.3h1.1v63.2h-1.1z" fill="#f5f5f5"/></g><g clip-path="url(#b)"><path d="m681.5 750.3h1.1v63.2h-1.1z" fill="#f6f6f6"/></g><g clip-path="url(#b)"><path d="m682.6 750.3h2.7v63.2h-2.7z" fill="#f6f6f6"/></g><g clip-path="url(#b)"><path d="m685.3 750.3h2.7v63.2h-2.7z" fill="#f7f7f7"/></g><g clip-path="url(#b)"><path d="m688 750.3h2.7v63.2h-2.7z" fill="#f8f8f8"/></g><g clip-path="url(#b)"><path d="m690.8 750.3h2.7v63.2h-2.7z" fill="#fafafa"/></g><g clip-path="url(#b)"><path d="m693.5 750.3h2.7v63.2h-2.7z" fill="#fbfbfb"/></g><g clip-path="url(#b)"><path d="m696.2 750.3h2.7v63.2h-2.7z" fill="#fcfcfc"/></g><g clip-path="url(#b)"><path d="m698.9 750.3h2.7v63.2h-2.7z" fill="#fdfdfd"/></g><g clip-path="url(#b)"><path d="m701.6 750.3h21.2v63.2h-21.2z" fill="#fdfdfd"/></g><g clip-path="url(#b)"><path d="m722.8 750.3h21.2v63.2h-21.2z" fill="#fff"/></g><g clip-path="url(#b)"><path d="m744 750.3h7.9v63.2h-7.9z" fill="#fff"/></g><path d="m733.2 814.4c-42.1 0-66.4-6.7-72.3-20-8.5-19.2-2.9-29.8 1.2-34.4 5.4-6.1 14.4-8.7 21.9-6.4 3.6 1.1 13.5 2.8 26 4.9 7.6 1.3 16.3 2.8 25.2 4.4l.5.1.2.4c5.8 11.3 17.4 38.9-.2 50.7l-.2.2h-.3c-.7.1-1.4.1-2 .1zm-54.9-59.6c-5.4 0-11 2.4-14.7 6.5-3.8 4.2-8.9 14.1-.8 32.3 5.4 12.3 29.8 18.8 70.5 18.8h1.5c15.7-10.8 5.1-36.5-.5-47.5-8.7-1.6-17.2-3-24.7-4.3-12.6-2.2-22.5-3.8-26.2-5-1.6-.6-3.4-.8-5.1-.8z" fill="#00b4d5"/><path d="m491.6 809.5c19.8 2.4 39.6 3.7 59.5 3.9 32 .2 66.3-3.6 73.2-19.4 13.7-31-8.1-43.7-21.8-39.4-5.9 1.8-27.7 5.1-51.3 9.4-31.2 5.7-65.5 13.3-69.5 22-7 15 9.9 23.5 9.9 23.5z" fill="#00b4d5"/><path clip-path="url(#c)" d="m629.7 753.4h1.8v59.1h-1.8z" fill="#dadada"/><path clip-path="url(#c)" d="m628.5 753.4h1.2v59.1h-1.2z" fill="#dadada"/><path clip-path="url(#c)" d="m627.3 753.4h1.2v59.1h-1.2z" fill="#dbdbdb"/><path clip-path="url(#c)" d="m626.1 753.4h1.2v59.1h-1.2z" fill="#dcdcdc"/><path clip-path="url(#c)" d="m624.9 753.4h1.2v59.1h-1.2z" fill="#ddd"/><path clip-path="url(#c)" d="m623.7 753.4h1.2v59.1h-1.2z" fill="#dedede"/><path clip-path="url(#c)" d="m622.5 753.4h1.2v59.1h-1.2z" fill="#dfdfdf"/><path clip-path="url(#c)" d="m621.3 753.4h1.2v59.1h-1.2z" fill="#e0e0e0"/><path clip-path="url(#c)" d="m620.1 753.4h1.2v59.1h-1.2z" fill="#e2e2e2"/><path clip-path="url(#c)" d="m618.9 753.4h1.2v59.1h-1.2z" fill="#e3e3e3"/><path clip-path="url(#c)" d="m617.7 753.4h1.2v59.1h-1.2z" fill="#e4e4e4"/><path clip-path="url(#c)" d="m616.5 753.4h1.2v59.1h-1.2z" fill="#e5e5e5"/><path clip-path="url(#c)" d="m615.3 753.4h1.2v59.1h-1.2z" fill="#e6e6e6"/><path clip-path="url(#c)" d="m614.1 753.4h1.2v59.1h-1.2z" fill="#e7e7e7"/><path clip-path="url(#c)" d="m612.9 753.4h1.2v59.1h-1.2z" fill="#e8e8e8"/><path clip-path="url(#c)" d="m611.7 753.4h1.2v59.1h-1.2z" fill="#e9e9e9"/><path clip-path="url(#c)" d="m609.7 753.4h2v59.1h-2z" fill="#e9e9e9"/><path clip-path="url(#c)" d="m607.7 753.4h2v59.1h-2z" fill="#eaeaea"/><path clip-path="url(#c)" d="m605.7 753.4h2v59.1h-2z" fill="#ebebeb"/><path clip-path="url(#c)" d="m603.8 753.4h2v59.1h-2z" fill="#ececec"/><path clip-path="url(#c)" d="m601.8 753.4h2v59.1h-2z" fill="#ededed"/><path clip-path="url(#c)" d="m599.8 753.4h2v59.1h-2z" fill="#eee"/><path clip-path="url(#c)" d="m597.9 753.4h2v59.1h-2z" fill="#f0f0f0"/><path clip-path="url(#c)" d="m595.9 753.4h2v59.1h-2z" fill="#f1f1f1"/><path clip-path="url(#c)" d="m593.9 753.4h2v59.1h-2z" fill="#f2f2f2"/><path clip-path="url(#c)" d="m591.9 753.4h2v59.1h-2z" fill="#f3f3f3"/><path clip-path="url(#c)" d="m590 753.4h2v59.1h-2z" fill="#f4f4f4"/><path clip-path="url(#c)" d="m588 753.4h2v59.1h-2z" fill="#f5f5f5"/><path clip-path="url(#c)" d="m586 753.4h2v59.1h-2z" fill="#f6f6f6"/><path clip-path="url(#c)" d="m581.3 753.4h4.7v59.1h-4.7z" fill="#f6f6f6"/><path clip-path="url(#c)" d="m576.6 753.4h4.7v59.1h-4.7z" fill="#f7f7f7"/><path clip-path="url(#c)" d="m571.8 753.4h4.7v59.1h-4.7z" fill="#f8f8f8"/><path clip-path="url(#c)" d="m567.1 753.4h4.7v59.1h-4.7z" fill="#fafafa"/><path clip-path="url(#c)" d="m562.4 753.4h4.7v59.1h-4.7z" fill="#fbfbfb"/><path clip-path="url(#c)" d="m557.6 753.4h4.7v59.1h-4.7z" fill="#fcfcfc"/><path clip-path="url(#c)" d="m552.9 753.4h4.7v59.1h-4.7z" fill="#fdfdfd"/><path clip-path="url(#c)" d="m516 753.4h36.9v59.1h-36.9z" fill="#fdfdfd"/><path clip-path="url(#c)" d="m479 753.4h36.9v59.1h-36.9z" fill="#fff"/><path clip-path="url(#c)" d="m476.4 753.4h2.7v59.1h-2.7z" fill="#fff"/><path clip-path="url(#c)" d="m629.7 751.3h4.1v63.1h-4.1z" fill="#dadada"/><path clip-path="url(#c)" d="m628.5 751.3h1.2v63.1h-1.2z" fill="#dadada"/><path clip-path="url(#c)" d="m627.3 751.3h1.2v63.1h-1.2z" fill="#dbdbdb"/><path clip-path="url(#c)" d="m626.1 751.3h1.2v63.1h-1.2z" fill="#dcdcdc"/><path clip-path="url(#c)" d="m624.9 751.3h1.2v63.1h-1.2z" fill="#ddd"/><path clip-path="url(#c)" d="m623.7 751.3h1.2v63.1h-1.2z" fill="#dedede"/><path clip-path="url(#c)" d="m622.5 751.3h1.2v63.1h-1.2z" fill="#dfdfdf"/><path clip-path="url(#c)" d="m621.3 751.3h1.2v63.1h-1.2z" fill="#e0e0e0"/><path clip-path="url(#c)" d="m620.1 751.3h1.2v63.1h-1.2z" fill="#e2e2e2"/><path clip-path="url(#c)" d="m618.9 751.3h1.2v63.1h-1.2z" fill="#e3e3e3"/><path clip-path="url(#c)" d="m617.7 751.3h1.2v63.1h-1.2z" fill="#e4e4e4"/><path clip-path="url(#c)" d="m616.5 751.3h1.2v63.1h-1.2z" fill="#e5e5e5"/><path clip-path="url(#c)" d="m615.3 751.3h1.2v63.1h-1.2z" fill="#e6e6e6"/><path clip-path="url(#c)" d="m614.1 751.3h1.2v63.1h-1.2z" fill="#e7e7e7"/><path clip-path="url(#c)" d="m612.9 751.3h1.2v63.1h-1.2z" fill="#e8e8e8"/><path clip-path="url(#c)" d="m611.7 751.3h1.2v63.1h-1.2z" fill="#e9e9e9"/><path clip-path="url(#c)" d="m609.7 751.3h2v63.1h-2z" fill="#e9e9e9"/><path clip-path="url(#c)" d="m607.7 751.3h2v63.1h-2z" fill="#eaeaea"/><path clip-path="url(#c)" d="m605.7 751.3h2v63.1h-2z" fill="#ebebeb"/><path clip-path="url(#c)" d="m603.8 751.3h2v63.1h-2z" fill="#ececec"/><path clip-path="url(#c)" d="m601.8 751.3h2v63.1h-2z" fill="#ededed"/><path clip-path="url(#c)" d="m599.8 751.3h2v63.1h-2z" fill="#eee"/><path clip-path="url(#c)" d="m597.9 751.3h2v63.1h-2z" fill="#f0f0f0"/><path clip-path="url(#c)" d="m595.9 751.3h2v63.1h-2z" fill="#f1f1f1"/><path clip-path="url(#c)" d="m593.9 751.3h2v63.1h-2z" fill="#f2f2f2"/><path clip-path="url(#c)" d="m591.9 751.3h2v63.1h-2z" fill="#f3f3f3"/><path clip-path="url(#c)" d="m590 751.3h2v63.1h-2z" fill="#f4f4f4"/><path clip-path="url(#c)" d="m588 751.3h2v63.1h-2z" fill="#f5f5f5"/><path clip-path="url(#c)" d="m586 751.3h2v63.1h-2z" fill="#f6f6f6"/><path clip-path="url(#c)" d="m581.3 751.3h4.7v63.1h-4.7z" fill="#f6f6f6"/><path clip-path="url(#c)" d="m576.6 751.3h4.7v63.1h-4.7z" fill="#f7f7f7"/><path clip-path="url(#c)" d="m571.8 751.3h4.7v63.1h-4.7z" fill="#f8f8f8"/><path clip-path="url(#c)" d="m567.1 751.3h4.7v63.1h-4.7z" fill="#fafafa"/><path clip-path="url(#c)" d="m562.4 751.3h4.7v63.1h-4.7z" fill="#fbfbfb"/><path clip-path="url(#c)" d="m557.6 751.3h4.7v63.1h-4.7z" fill="#fcfcfc"/><path clip-path="url(#c)" d="m552.9 751.3h4.7v63.1h-4.7z" fill="#fdfdfd"/><path clip-path="url(#c)" d="m516 751.3h36.9v63.1h-36.9z" fill="#fdfdfd"/><path clip-path="url(#c)" d="m479 751.3h36.9v63.1h-36.9z" fill="#fff"/><path clip-path="url(#c)" d="m473.5 751.3h5.6v63.1h-5.6z" fill="#fff"/><g clip-path="url(#d)"><path d="m628.7 750.3h9.3v63.2h-9.3z" fill="#dadada"/></g><g clip-path="url(#d)"><path d="m628 750.3h.7v63.2h-.7z" fill="#dadada"/></g><g clip-path="url(#d)"><path d="m627.3 750.3h.7v63.2h-.7z" fill="#dbdbdb"/></g><g clip-path="url(#d)"><path d="m626.7 750.3h.7v63.2h-.7z" fill="#dcdcdc"/></g><g clip-path="url(#d)"><path d="m626 750.3h.7v63.2h-.7z" fill="#ddd"/></g><g clip-path="url(#d)"><path d="m625.3 750.3h.7v63.2h-.7z" fill="#dedede"/></g><g clip-path="url(#d)"><path d="m624.6 750.3h.7v63.2h-.7z" fill="#dfdfdf"/></g><g clip-path="url(#d)"><path d="m623.9 750.3h.7v63.2h-.7z" fill="#e0e0e0"/></g><g clip-path="url(#d)"><path d="m623.2 750.3h.7v63.2h-.7z" fill="#e2e2e2"/></g><g clip-path="url(#d)"><path d="m622.5 750.3h.7v63.2h-.7z" fill="#e3e3e3"/></g><g clip-path="url(#d)"><path d="m621.8 750.3h.7v63.2h-.7z" fill="#e4e4e4"/></g><g clip-path="url(#d)"><path d="m621.1 750.3h.7v63.2h-.7z" fill="#e5e5e5"/></g><g clip-path="url(#d)"><path d="m620.4 750.3h.7v63.2h-.7z" fill="#e6e6e6"/></g><g clip-path="url(#d)"><path d="m619.7 750.3h.7v63.2h-.7z" fill="#e7e7e7"/></g><g clip-path="url(#d)"><path d="m619 750.3h.7v63.2h-.7z" fill="#e8e8e8"/></g><g clip-path="url(#d)"><path d="m618.3 750.3h.7v63.2h-.7z" fill="#e9e9e9"/></g><g clip-path="url(#d)"><path d="m617.2 750.3h1.1v63.2h-1.1z" fill="#e9e9e9"/></g><g clip-path="url(#d)"><path d="m616.1 750.3h1.1v63.2h-1.1z" fill="#eaeaea"/></g><g clip-path="url(#d)"><path d="m615 750.3h1.1v63.2h-1.1z" fill="#ebebeb"/></g><g clip-path="url(#d)"><path d="m613.8 750.3h1.1v63.2h-1.1z" fill="#ececec"/></g><g clip-path="url(#d)"><path d="m612.7 750.3h1.1v63.2h-1.1z" fill="#ededed"/></g><g clip-path="url(#d)"><path d="m611.6 750.3h1.1v63.2h-1.1z" fill="#eee"/></g><g clip-path="url(#d)"><path d="m610.4 750.3h1.1v63.2h-1.1z" fill="#f0f0f0"/></g><g clip-path="url(#d)"><path d="m609.3 750.3h1.1v63.2h-1.1z" fill="#f1f1f1"/></g><g clip-path="url(#d)"><path d="m608.2 750.3h1.1v63.2h-1.1z" fill="#f2f2f2"/></g><g clip-path="url(#d)"><path d="m607 750.3h1.1v63.2h-1.1z" fill="#f3f3f3"/></g><g clip-path="url(#d)"><path d="m605.9 750.3h1.1v63.2h-1.1z" fill="#f4f4f4"/></g><g clip-path="url(#d)"><path d="m604.8 750.3h1.1v63.2h-1.1z" fill="#f5f5f5"/></g><g clip-path="url(#d)"><path d="m603.6 750.3h1.1v63.2h-1.1z" fill="#f6f6f6"/></g><g clip-path="url(#d)"><path d="m600.9 750.3h2.7v63.2h-2.7z" fill="#f6f6f6"/></g><g clip-path="url(#d)"><path d="m598.2 750.3h2.7v63.2h-2.7z" fill="#f7f7f7"/></g><g clip-path="url(#d)"><path d="m595.5 750.3h2.7v63.2h-2.7z" fill="#f8f8f8"/></g><g clip-path="url(#d)"><path d="m592.8 750.3h2.7v63.2h-2.7z" fill="#fafafa"/></g><g clip-path="url(#d)"><path d="m590 750.3h2.7v63.2h-2.7z" fill="#fbfbfb"/></g><g clip-path="url(#d)"><path d="m587.3 750.3h2.7v63.2h-2.7z" fill="#fcfcfc"/></g><g clip-path="url(#d)"><path d="m584.6 750.3h2.7v63.2h-2.7z" fill="#fdfdfd"/></g><g clip-path="url(#d)"><path d="m563.4 750.3h21.2v63.2h-21.2z" fill="#fdfdfd"/></g><g clip-path="url(#d)"><path d="m542.2 750.3h21.2v63.2h-21.2z" fill="#fff"/></g><g clip-path="url(#d)"><path d="m534.3 750.3h7.9v63.2h-7.9z" fill="#fff"/></g><g fill="#00b4d5"><path d="m553 814.4c-.6 0-1.3 0-1.9 0h-.3l-.3-.2c-17.6-11.8-6-39.4-.2-50.7l.2-.4.5-.1c8.9-1.6 17.5-3.1 25.2-4.4 12.5-2.1 22.4-3.8 26-4.9 7.5-2.3 16.5.3 21.9 6.4 4.1 4.6 9.7 15.2 1.2 34.4-5.9 13.2-30.2 19.9-72.3 19.9zm-1.6-2c41.7.2 66.5-6.3 72-18.8 8.1-18.2 2.9-28.1-.8-32.3-4.9-5.5-13-7.9-19.8-5.8-3.7 1.1-13.7 2.8-26.2 5-7.5 1.3-16 2.7-24.7 4.3-5.6 11.1-16.1 36.7-.5 47.6z"/><ellipse cx="667.1" cy="677.8" rx=".7" ry=".7"/><ellipse cx="670.5" cy="675" rx=".7" ry=".7"/><ellipse cx="670.5" cy="680.8" rx=".7" ry=".7"/><path d="m670.5 675s117.5-38.6 139.3-43.5"/><path d="m670 681.2s159.8 11.1 181.8 14.8"/><path d="m666.5 677.8s159.3-19.7 181.5-21.1"/><ellipse cx="612" cy="677.8" rx=".7" ry=".7"/><ellipse cx="608.6" cy="675" rx=".7" ry=".7"/><ellipse cx="608.6" cy="680.8" rx=".7" ry=".7"/><path d="m608.6 675s-117.6-38.6-139.3-43.6"/><path d="m609.1 681.2s-159.9 11.1-181.9 14.8"/><path d="m612.6 677.8s-159.3-19.7-181.5-21.1"/><path d="m820.7 593.1c-39.3-203.7-176.3-159.6-180.6-158.2h-.1c-4.3-1.4-141.3-45.4-180.6 158.2 0 0-38 33.7-48.7 71.5 43.1-80.1 151.1-32.3 151.1-32.3 13.9-14.4 43.4-27 62.4-34v.1c-1.4 10.5-11.6 50.5-11.6 50.5 9.8-8.1 27.4-8.8 27.4-8.8s17.6.7 27.4 8.8c0 0-10-39.6-11.5-50.3 18.6 6.7 48.3 19.1 62.5 33.8 0 0 108-47.7 151.1 32.3-10.8-37.9-48.8-71.6-48.8-71.6z"/></g><ellipse cx="692.7" cy="574.4" fill="#fff" rx="39.1" ry="73.3"/><path d="m711.9 597.9c0 9.2-3.4 17.3-8.6 22-4.5-1-14.5-2.6-20.5.1-5.3-4.7-8.7-12.8-8.7-22.1 0-14.5 8.5-26.2 18.9-26.2s18.9 11.7 18.9 26.2z" fill="#00b4d5"/><path d="m712.7 559.2c-4.5-6.9-11.7-11.8-19.5-11.9h-.5c-7.7.1-15 5-19.5 11.9-7.3 11.3-8.1 27.2-4.8 40.3 2 8 5.9 15.4 11.6 21.5-2.8-2.9-4.8-7.6-6.4-11.4-1.7-4.2-2.9-8.7-3.6-13.2-1.9-11.7-1.5-25.1 5.5-34.8 2.9-3.9 6.9-7 11.4-8.1 8.7-2.1 17.6.2 23.4 8.1 7.1 9.7 7.4 23 5.5 34.8-.7 4.5-1.9 9-3.5 13.2-1.5 3.6-3.3 7.9-5.9 10.9 5.4-6 9.1-13.2 11-21 3.4-13.1 2.7-29-4.7-40.3z" fill="#00b4d5"/><circle cx="692.7" cy="590.6" fill="#fff" r="1.9"/><ellipse cx="587.3" cy="574.4" fill="#fff" rx="39.1" ry="73.3"/><path d="m568.2 597.9c0 9.2 3.4 17.3 8.6 22 4.5-1 14.5-2.6 20.5.1 5.2-4.7 8.7-12.8 8.7-22.1 0-14.5-8.5-26.2-18.9-26.2s-18.9 11.7-18.9 26.2z" fill="#00b4d5"/><path d="m567.4 559.2c4.5-6.9 11.7-11.8 19.5-11.9h.5c7.7.1 15 5 19.5 11.9 7.3 11.3 8.1 27.2 4.8 40.3-1.9 8-5.9 15.4-11.5 21.5 2.8-2.9 4.8-7.6 6.4-11.4 1.7-4.3 2.9-8.7 3.5-13.2 1.9-11.7 1.5-25.1-5.5-34.8-2.9-3.9-6.9-7-11.4-8.1-8.7-2.1-17.6.2-23.4 8.1-7.1 9.7-7.4 23-5.5 34.8.7 4.5 1.9 9 3.5 13.2 1.5 3.6 3.3 7.9 5.9 10.9-5.4-6-9.1-13.2-11-21-3.5-13.1-2.7-29 4.7-40.3z" fill="#00b4d5"/><circle cx="587.3" cy="590.6" fill="#fff" r="1.9"/></svg>